<?xml version="1.0" encoding="UTF-8" standalone="no"?>
<!DOCTYPE svg PUBLIC "-//W3C//DTD SVG 1.1//EN" "http://www.w3.org/Graphics/SVG/1.1/DTD/svg11.dtd">
<svg width="100%" height="100%" viewBox="0 0 400 300" version="1.1" xmlns="http://www.w3.org/2000/svg" xmlns:xlink="http://www.w3.org/1999/xlink" xml:space="preserve" xmlns:serif="http://www.serif.com/" style="fill-rule:evenodd;clip-rule:evenodd;">
    <g id="cat">
        <path id="background" d="M202.891,13.186C236.728,11.346 262.455,31.644 274.813,37.897C282.754,41.916 290.477,28.521 299.23,33.908C304.395,37.086 299.084,54.225 305.374,58.535C309.791,61.562 319.811,67.549 326.262,70.698C335.133,75.027 342.293,64.086 349.101,68.795C356.541,73.942 344.048,107.507 337.597,124.024C328.135,148.251 316.93,144.546 312.999,157.645C302.457,192.77 218.686,124.024 188.287,124.024C155.886,124.024 122.009,118.372 107.161,130.821C90.851,144.494 78.527,146.748 78.682,131.171C79.029,96.379 127.182,108.784 126.961,104.619C123.511,39.499 168.615,15.049 202.891,13.186Z" style="fill:#b4a99a;"/>
        <path d="M201.953,12.089C206.493,12.089 217.573,12.773 215.768,15.285C215.098,16.218 210.888,14.968 210.951,17.637C211.107,24.237 207.958,28.839 201.709,29.328C195.873,29.785 191.763,23.876 191.736,19.315C191.722,16.967 189.344,16.523 184.919,17.059C181.086,17.523 197.194,12.089 201.953,12.089Z" style="fill:#6a5b46;"/>
        <path d="M235.123,16.224C239.39,17.775 251.564,22.691 249.094,24.554C248.166,25.254 247.173,23.766 245.719,23.729C244.802,23.705 243.826,24.374 243.287,25.443C241.662,28.673 238.325,32.625 232.642,31.412C227.599,30.335 225.389,25.057 225.24,19.85C225.181,17.79 224.703,16.972 220.599,16.094C216.824,15.286 230.651,14.599 235.123,16.224Z" style="fill:#6a5b46;fill-opacity:0.91;"/>
        <path d="M94.88,132.994C95.485,131.137 95.253,129.662 92.611,128.534L82.238,125.155C77.203,123.408 76.702,138.897 83.462,141.686C91.931,145.18 94.88,132.994 94.88,132.994Z" style="fill:#6a5b46;"/>
        <path d="M103.014,123.025C104.681,122.007 106.121,122.478 104.57,117.742L101.54,107.181C100.522,105.514 97.31,106.419 95.644,107.437L87.765,111.159C86.098,112.177 85.861,113.872 87.565,115.405C89.5,117.148 92.803,121.777 94.562,123.524C95.545,124.501 96.925,126.036 98.592,125.018L103.014,123.025Z" style="fill:#6a5b46;"/>
        <path d="M125.244,121.468C126.158,121.408 126.852,120.618 126.792,119.704L125.957,106.929C125.897,106.015 125.107,105.322 124.193,105.381L114.765,105.998C113.851,106.057 113.157,106.848 113.217,107.762L114.052,120.536C114.112,121.45 114.902,122.144 115.816,122.084L125.244,121.468Z" style="fill:#6a5b46;"/>
        <g id="wave">
            <path d="M31.249,182.596C26.327,188.361 23.488,190.312 18.965,190.889C16.038,191.289 14.663,192.441 14.708,194.482C14.796,197.276 16.571,198.207 20.65,197.542C24.198,197.01 29.032,194.614 31.825,192.043L33.955,190.047L36.26,192.087C44.686,199.493 55.729,199.581 63.757,192.219L66.24,189.958L68.724,192.219C76.75,199.537 87.794,199.493 96.22,192.087L98.482,190.091L100.655,192.087C103.494,194.704 108.327,197.098 111.875,197.586C116,198.162 117.684,197.276 117.684,194.481C117.684,192.308 116.532,191.332 113.471,190.888C108.992,190.312 106.154,188.361 101.231,182.595C99.102,180.067 97.683,180.067 95.554,182.595C90.277,188.759 87.66,190.489 83.048,190.843C78.79,191.153 75.598,189.601 71.739,185.477C70.187,183.791 68.9,182.239 68.9,182.062C68.9,181.884 68.324,181.485 67.57,181.174C66.506,180.731 65.974,180.731 64.909,181.174C64.199,181.484 63.579,181.884 63.579,182.062C63.579,182.239 62.293,183.791 60.74,185.477C56.882,189.601 53.688,191.153 49.431,190.843C44.819,190.489 42.069,188.67 36.703,182.328C34.753,180.067 33.333,180.157 31.249,182.596Z" style="fill:#394d54;fill-rule:nonzero;"/>
        </g>
        <g id="wave1" serif:id="wave">
            <path d="M276.441,182.596C271.519,188.361 268.68,190.312 264.157,190.889C261.23,191.289 259.855,192.441 259.9,194.482C259.988,197.276 261.763,198.207 265.842,197.542C269.389,197.01 274.224,194.614 277.017,192.043L279.147,190.047L281.452,192.087C289.878,199.493 300.921,199.581 308.949,192.219L311.432,189.958L313.916,192.219C321.942,199.537 332.986,199.493 341.412,192.087L343.673,190.091L345.847,192.087C348.686,194.704 353.519,197.098 357.067,197.586C361.192,198.162 362.876,197.276 362.876,194.481C362.876,192.308 361.724,191.332 358.663,190.888C354.184,190.312 351.346,188.361 346.423,182.595C344.294,180.067 342.875,180.067 340.746,182.595C335.469,188.759 332.852,190.489 328.24,190.843C323.982,191.153 320.79,189.601 316.931,185.477C315.379,183.791 314.092,182.239 314.092,182.062C314.092,181.884 313.516,181.485 312.762,181.174C311.698,180.731 311.166,180.731 310.101,181.174C309.391,181.484 308.771,181.884 308.771,182.062C308.771,182.239 307.485,183.791 305.932,185.477C302.074,189.601 298.88,191.153 294.623,190.843C290.011,190.489 287.261,188.67 281.895,182.328C279.945,180.067 278.525,180.157 276.441,182.596Z" style="fill:#394d54;fill-rule:nonzero;"/>
        </g>
        <g id="ship">
            <path d="M307.793,164.088C307.417,162.817 303.731,157.354 298.437,155.152C296.158,154.203 291.888,153.507 275.249,153.81C258.679,154.111 274.453,137.662 262.232,126.641C254.129,119.335 101.638,121.68 98.335,124.523C94.105,128.164 98.327,138.624 98.335,145.537C98.348,156.526 95.599,152.88 87.865,154.739C77.23,157.296 103.712,223.435 130.596,229.961C156.277,236.196 239.561,240.231 260.226,229.121C283.57,216.569 310.176,172.16 307.793,164.088Z" style="fill:#fff;"/>
            <rect x="98.335" y="139.38" width="168.857" height="6.157" style="fill:#83c4eb;"/>
            <path d="M258.928,124.558L98.335,124.523L98.335,128.76L264.375,128.76L258.928,124.558Z" style="fill:#83c4eb;"/>
            <g>
                <path d="M174.891,168.088C178.754,168.088 181.891,171.225 181.891,175.088C181.891,178.951 178.754,182.088 174.891,182.088C171.027,182.088 167.891,178.951 167.891,175.088C167.891,171.225 171.027,168.088 174.891,168.088ZM174.891,172.588C173.511,172.588 172.391,173.708 172.391,175.088C172.391,176.468 173.511,177.588 174.891,177.588C176.271,177.588 177.391,176.468 177.391,175.088C177.391,173.708 176.271,172.588 174.891,172.588Z" style="fill:#b4a99a;"/>
                <path d="M174.891,169.088C178.202,169.088 180.891,171.777 180.891,175.088C180.891,178.4 178.202,181.088 174.891,181.088C171.579,181.088 168.891,178.4 168.891,175.088C168.891,171.777 171.579,169.088 174.891,169.088ZM174.891,170.888C172.573,170.888 170.691,172.77 170.691,175.088C170.691,177.406 172.573,179.288 174.891,179.288C177.209,179.288 179.091,177.406 179.091,175.088C179.091,172.77 177.209,170.888 174.891,170.888Z" style="fill:#a1777c;"/>
            </g>
            <g>
                <path d="M141.572,168.088C145.436,168.088 148.572,171.225 148.572,175.088C148.572,178.951 145.436,182.088 141.572,182.088C137.709,182.088 134.572,178.951 134.572,175.088C134.572,171.225 137.709,168.088 141.572,168.088ZM141.572,172.588C140.193,172.588 139.072,173.708 139.072,175.088C139.072,176.468 140.193,177.588 141.572,177.588C142.952,177.588 144.072,176.468 144.072,175.088C144.072,173.708 142.952,172.588 141.572,172.588Z" style="fill:#b4a99a;"/>
                <path d="M141.572,169.088C144.884,169.088 147.572,171.777 147.572,175.088C147.572,178.4 144.884,181.088 141.572,181.088C138.261,181.088 135.572,178.4 135.572,175.088C135.572,171.777 138.261,169.088 141.572,169.088ZM141.572,170.888C139.254,170.888 137.372,172.77 137.372,175.088C137.372,177.406 139.254,179.288 141.572,179.288C143.89,179.288 145.772,177.406 145.772,175.088C145.772,172.77 143.89,170.888 141.572,170.888Z" style="fill:#a1777c;"/>
            </g>
            <g>
                <path d="M109.816,168.088C113.679,168.088 116.816,171.225 116.816,175.088C116.816,178.951 113.679,182.088 109.816,182.088C105.952,182.088 102.816,178.951 102.816,175.088C102.816,171.225 105.952,168.088 109.816,168.088ZM109.816,172.588C108.436,172.588 107.316,173.708 107.316,175.088C107.316,176.468 108.436,177.588 109.816,177.588C111.195,177.588 112.316,176.468 112.316,175.088C112.316,173.708 111.195,172.588 109.816,172.588Z" style="fill:#b4a99a;"/>
                <path d="M109.816,169.088C113.127,169.088 115.816,171.777 115.816,175.088C115.816,178.4 113.127,181.088 109.816,181.088C106.504,181.088 103.816,178.4 103.816,175.088C103.816,171.777 106.504,169.088 109.816,169.088ZM109.816,170.888C107.498,170.888 105.616,172.77 105.616,175.088C105.616,177.406 107.498,179.288 109.816,179.288C112.134,179.288 114.016,177.406 114.016,175.088C114.016,172.77 112.134,170.888 109.816,170.888Z" style="fill:#a1777c;"/>
            </g>
            <g>
                <path d="M174.891,168.088C178.754,168.088 181.891,171.225 181.891,175.088C181.891,178.951 178.754,182.088 174.891,182.088C171.027,182.088 167.891,178.951 167.891,175.088C167.891,171.225 171.027,168.088 174.891,168.088ZM174.891,172.588C173.511,172.588 172.391,173.708 172.391,175.088C172.391,176.468 173.511,177.588 174.891,177.588C176.271,177.588 177.391,176.468 177.391,175.088C177.391,173.708 176.271,172.588 174.891,172.588Z" style="fill:#b4a99a;"/>
                <path d="M174.891,169.088C178.202,169.088 180.891,171.777 180.891,175.088C180.891,178.4 178.202,181.088 174.891,181.088C171.579,181.088 168.891,178.4 168.891,175.088C168.891,171.777 171.579,169.088 174.891,169.088ZM174.891,170.888C172.573,170.888 170.691,172.77 170.691,175.088C170.691,177.406 172.573,179.288 174.891,179.288C177.209,179.288 179.091,177.406 179.091,175.088C179.091,172.77 177.209,170.888 174.891,170.888Z" style="fill:#a1777c;"/>
            </g>
            <g>
                <path d="M209.891,168.148C213.754,168.148 216.891,171.285 216.891,175.148C216.891,179.012 213.754,182.148 209.891,182.148C206.027,182.148 202.891,179.012 202.891,175.148C202.891,171.285 206.027,168.148 209.891,168.148ZM209.891,172.648C208.511,172.648 207.391,173.769 207.391,175.148C207.391,176.528 208.511,177.648 209.891,177.648C211.271,177.648 212.391,176.528 212.391,175.148C212.391,173.769 211.271,172.648 209.891,172.648Z" style="fill:#b4a99a;"/>
                <path d="M209.891,169.148C213.202,169.148 215.891,171.837 215.891,175.148C215.891,178.46 213.202,181.148 209.891,181.148C206.579,181.148 203.891,178.46 203.891,175.148C203.891,171.837 206.579,169.148 209.891,169.148ZM209.891,170.948C207.573,170.948 205.691,172.83 205.691,175.148C205.691,177.466 207.573,179.348 209.891,179.348C212.209,179.348 214.091,177.466 214.091,175.148C214.091,172.83 212.209,170.948 209.891,170.948Z" style="fill:#a1777c;"/>
            </g>
            <g>
                <path d="M241.745,168.148C245.608,168.148 248.745,171.285 248.745,175.148C248.745,179.012 245.608,182.148 241.745,182.148C237.881,182.148 234.745,179.012 234.745,175.148C234.745,171.285 237.881,168.148 241.745,168.148ZM241.745,172.648C240.365,172.648 239.245,173.769 239.245,175.148C239.245,176.528 240.365,177.648 241.745,177.648C243.125,177.648 244.245,176.528 244.245,175.148C244.245,173.769 243.125,172.648 241.745,172.648Z" style="fill:#b4a99a;"/>
                <path d="M241.745,169.148C245.056,169.148 247.745,171.837 247.745,175.148C247.745,178.46 245.056,181.148 241.745,181.148C238.433,181.148 235.745,178.46 235.745,175.148C235.745,171.837 238.433,169.148 241.745,169.148ZM241.745,170.948C239.427,170.948 237.545,172.83 237.545,175.148C237.545,177.466 239.427,179.348 241.745,179.348C244.063,179.348 245.945,177.466 245.945,175.148C245.945,172.83 244.063,170.948 241.745,170.948Z" style="fill:#a1777c;"/>
            </g>
            <g>
                <path d="M274.813,168.148C278.676,168.148 281.813,171.285 281.813,175.148C281.813,179.012 278.676,182.148 274.813,182.148C270.949,182.148 267.813,179.012 267.813,175.148C267.813,171.285 270.949,168.148 274.813,168.148ZM274.813,172.648C273.433,172.648 272.313,173.769 272.313,175.148C272.313,176.528 273.433,177.648 274.813,177.648C276.193,177.648 277.313,176.528 277.313,175.148C277.313,173.769 276.193,172.648 274.813,172.648Z" style="fill:#b4a99a;"/>
                <path d="M274.813,169.148C278.124,169.148 280.813,171.837 280.813,175.148C280.813,178.46 278.124,181.148 274.813,181.148C271.501,181.148 268.813,178.46 268.813,175.148C268.813,171.837 271.501,169.148 274.813,169.148ZM274.813,170.948C272.495,170.948 270.613,172.83 270.613,175.148C270.613,177.466 272.495,179.348 274.813,179.348C277.131,179.348 279.013,177.466 279.013,175.148C279.013,172.83 277.131,170.948 274.813,170.948Z" style="fill:#a1777c;"/>
            </g>
        </g>
        <path id="border" d="M219.954,12.089C198.739,10 192.956,10.648 175.838,16.24C172.443,17.349 165.999,20.017 159.091,24.438C152.286,28.793 138.995,40.923 133.741,52.813C129.685,61.989 129.867,64.454 127.852,71.888C126.329,77.505 125.588,91.167 125.662,97.985C125.728,104.094 126.693,103.94 110.225,104.304C96.104,104.616 91.174,107.494 90.72,107.693C87.249,109.21 81.727,114.289 80.164,117.688C75.636,127.535 75.779,137.345 79.607,141.516C82.106,144.238 87.691,145.199 89.93,144.04C91.652,143.149 92.146,142.838 92.891,142.288C95.637,140.262 96.262,141.401 95.862,147.711C95.601,151.816 95.571,151.85 92.21,151.757C85.041,151.56 82.65,156.206 83.84,162.939C84.045,164.098 87.153,178.599 87.924,181.061C88.899,184.176 90.66,189.647 91.884,192.288C94.506,197.949 95.879,200.824 96.947,202.888C97.573,204.098 98.37,205.699 98.718,206.446C99.066,207.193 102.451,212.218 102.891,212.595C103.684,213.274 112.427,222.02 113.067,222.541C114.59,223.781 117.927,227.631 128.691,231.007C140.537,234.722 148.22,235.758 166.091,236.88C173.887,237.37 231.166,237.368 238.034,236.708C256.418,234.941 259.375,231.92 270.035,224.961C273.588,222.641 281.251,214.155 282.744,212.661C283.544,211.862 289.222,204.784 289.43,204.488C296.222,194.823 303.305,181.931 307.525,173.888C308.784,171.488 310.17,168.374 310.691,167.013C311.211,165.651 312.35,163.439 313.222,162.097C314.094,160.755 314.924,158.989 315.066,158.172C315.563,155.308 316.111,154.573 319.43,152.312C323.551,149.505 328.647,144.601 330.676,141.488C331.537,140.168 332.927,138.151 333.766,137.005C334.605,135.859 345.057,115.398 345.309,114.633C345.875,112.918 347.335,113.032 349.404,114.951C352.886,118.181 356.091,118.936 356.091,116.527C356.091,115.362 354.098,113.162 352.05,112.066C349.094,110.484 347.468,107.747 348.454,106.014C349.225,104.658 350.416,104.806 352.291,105.688C353.25,106.139 354.68,106.57 356.175,107.164C357.866,107.836 360.644,108.131 360.817,106.791C361.058,104.921 358.026,102.734 353.491,101.728C349.938,100.94 349.697,100.302 351.121,93.488C352.105,88.78 353.316,84.538 353.703,80.064C354.509,70.737 352.943,66.726 349.159,65.088C345.211,63.379 331.928,68.317 329.691,68.94C329.049,69.119 327.881,69.269 326.291,68.307C325.411,67.774 323.566,66.682 322.191,65.879C320.816,65.076 312.364,59.489 311.345,58.758C310.325,58.026 308.594,56.914 307.497,56.286C304.091,54.335 304.183,54.646 304.028,44.69C304.028,44.69 304.303,36.63 302.714,34.288C301.125,31.946 297.47,30.151 294.493,30.639C288.691,31.589 287.349,31.986 280.091,34.896C277.038,36.12 275.787,36.292 274.975,35.599C274.066,34.823 253.91,22.876 247.491,19.619C243.529,17.608 234.209,13.493 219.954,12.089ZM254.32,39.517C253.309,40.527 254.994,43.277 256.156,44.088C256.993,44.673 261.49,47.939 263.687,50.208C265.166,51.736 267.929,53.929 269.211,52.299C270.498,50.662 265.739,44.518 262.735,42.452C258.774,39.728 255.421,38.416 254.32,39.517M247.153,50.019C245.646,51.685 246.948,53.665 250.091,54.487C253.268,55.318 256.997,56.968 259.274,58.548C261.854,60.339 263.183,60.48 264.48,59.099L265.409,58.11L264.465,56.733C261.811,52.859 249.059,47.914 247.153,50.019M293.373,80.656C290.373,84.073 292.401,89.922 296.871,90.743C297.828,90.918 298.724,91.505 299.62,92.543C303.014,96.476 309.881,95.547 310.726,91.041C311.315,87.901 308.906,86.51 306.7,88.716C305.175,90.24 304.3,89.869 304.251,87.678C304.176,84.259 304.149,84.187 302.818,83.722C301.699,83.332 301.355,83.404 299.982,84.312C297.89,85.697 297.157,85.38 297.381,83.185C297.784,79.234 295.749,77.95 293.373,80.656M257.434,125.641C258.858,126.581 262.732,127.668 263.649,129.334C264.054,130.07 264.196,136.917 263.939,137.129C262.727,138.127 105.505,137.404 101.491,136.744C100.749,136.622 100.683,136.257 100.578,131.707C100.455,126.342 100.599,125.898 102.641,125.348M264.304,141.702C265.614,142.69 265.529,150.741 265.377,151.573C265.306,151.964 264.301,152.011 264.301,152.011C262.776,152.705 101.398,151.874 100.546,151.168C99.865,150.603 100.163,142.656 100.892,141.927C101.206,141.613 263.592,140.945 264.304,141.702ZM265.091,156.338C301.531,156.613 299.67,156.46 300.279,159.233C300.604,160.715 303.419,163.536 305.138,164.103C306.49,164.55 306.669,167.165 306.138,168.21C305.284,169.887 292.198,194.566 284.578,204.15C277.489,213.066 267.259,223.496 256.177,228.359C252.465,229.988 246.03,231.995 237.53,232.416C211.427,233.712 166.6,232.649 153.914,232.012C138.966,231.261 128.575,226.828 122.193,223.615C106.139,215.534 98.494,198.135 93.942,186.688C90.78,178.738 89.443,170.79 88.631,167.437C87.915,164.482 85.691,156.828 88.891,156.182C95.485,154.851 181.556,155.708 265.091,156.338M219.003,16.435C232.041,17.951 239.552,21.258 245.712,23.688C251.246,25.871 265.948,35.395 268.69,36.837C269.789,37.415 270.562,37.901 271.09,38.347C273.19,40.122 276.391,41.115 278.684,40.092C285.685,36.967 286.72,36.75 290.792,35.51C298.995,33.012 300.32,35.645 299.636,54.59C299.54,57.246 298.427,60.866 299.486,62.561C300.732,64.556 303.295,64.357 304.891,62.261C305.605,61.324 307.829,61.49 308.485,62.281C308.798,62.658 308.959,64.102 308.929,66.255C308.858,71.301 310.49,72.174 313.684,69.095C314.511,68.297 315.106,67.079 316.936,67.95C318.654,68.768 319.471,69.878 319.484,72.749C319.504,76.765 321.341,78.011 323.813,75.684C324.991,74.575 327.035,73.71 328.491,73.686C330.795,73.648 344.04,66.347 348.19,69.226C351.693,71.656 348.975,80.756 347.517,89.275C346.05,97.844 343.957,106.649 340.491,113.911C338.349,118.399 333.246,129.406 331.638,131.888C331.068,132.768 330.262,134.053 329.847,134.744C326.58,140.172 322.052,145.155 317.991,147.79C316.946,148.468 316.239,149.247 316.091,149.355C315.562,149.741 315.051,149.535 312.575,147.3C310.494,145.422 309.563,144.858 308.213,144.655C306.036,144.329 303.847,144.77 303.691,145.473C303.621,145.789 303.559,146.172 303.453,146.643C303.244,147.569 305.592,149.688 306.949,149.688C309.392,149.688 311.246,153.027 310.77,156.572C310.138,161.288 305.149,160.666 303.689,155.688C302.664,152.194 302.257,152.095 288.765,152.053C278.002,152.02 270.774,151.719 270.371,151.288C270.268,151.178 270.071,147.668 269.932,143.488C269.483,129.916 269.474,130.158 270.447,128.96C273.421,125.298 273.713,122.916 271.683,118.888C269.052,113.669 259.426,110.24 257.747,113.924C256.952,115.67 257.815,116.393 262.465,117.879C266.643,119.214 268.949,122.165 267.436,124.241C266.169,125.979 262.819,125.107 259.762,122.243C257.862,120.463 259.016,120.494 192.535,120.469C192.535,120.469 113.297,120.645 101.443,120.555C95.289,120.508 96.125,125.767 94.828,130.601C93.254,136.467 89.963,142.01 85.458,140.594C74.459,137.134 81.631,116.815 89.464,111.956C92.38,110.147 96.005,108.917 100.079,108.224C109.484,106.624 120.804,107.401 127.905,107.068C129.33,107.001 129.649,107.137 130.059,106.733C130.426,106.372 129.88,100.771 129.913,98.413C130.135,82.211 130.679,77.423 134.082,65.288C138.352,50.061 144.508,41.742 156.696,31.632C162.15,27.108 172.991,21.163 185.938,17.494C196.504,14.499 205.382,14.851 219.003,16.435Z" style="fill:#5d4530;"/>
        <g id="face">
            <ellipse cx="281.146" cy="71.34" rx="4.17" ry="4.232" style="fill:#5d4530;"/>
            <ellipse cx="322.446" cy="97.955" rx="4.035" ry="4.115" style="fill:#5d4530;"/>
        </g>
        <g id="wave2" serif:id="wave">
            <path d="M279.407,217.825C274.672,223.62 270.716,226.293 265.98,226.906C261.467,227.519 261.022,227.742 260.298,229.525C259.406,231.587 260.075,234.15 261.635,234.985C263.25,235.876 267.374,235.653 271.051,234.484C275.063,233.258 278.906,230.862 281.915,227.798L284.144,225.513L286.929,228.187C292.669,233.648 298.462,235.821 305.985,235.43C309.885,235.207 311.222,234.872 314.676,233.146C316.904,232.031 320.08,229.971 321.696,228.577L324.593,225.958L327.545,228.578C329.105,229.971 332.281,232.032 334.51,233.147C337.964,234.874 339.302,235.209 343.202,235.431C350.723,235.821 356.517,233.648 362.255,228.189L365.041,225.514L367.269,227.799C372.674,233.371 382.536,236.992 387.271,235.209C388.72,234.652 389.723,231.755 389.11,229.972C388.497,228.133 387.048,227.353 383.483,226.964C378.636,226.407 374.624,223.732 369.776,217.826C367.269,214.817 366.657,214.372 364.986,214.372C363.315,214.372 362.702,214.817 360.027,218.105C354.902,224.511 350.835,226.851 344.929,226.906C338.522,226.906 335.346,224.901 327.881,216.097C325.763,213.59 323.312,213.701 321.028,216.432C313.673,225.012 310.664,226.906 304.258,226.906C298.242,226.851 294.731,224.678 288.044,216.989C286.261,214.927 285.426,214.37 284.033,214.37C282.584,214.371 281.803,214.928 279.407,217.825Z" style="fill:#394d54;fill-rule:nonzero;"/>
        </g>
        <g id="wave3" serif:id="wave">
            <path d="M114.023,214.769C113.355,215.103 112.073,216.44 111.182,217.665C102.101,230.146 89.62,230.202 80.092,217.889C77.752,214.88 77.418,214.601 75.412,214.601C73.351,214.601 73.016,214.88 70.398,218.167C65.551,224.296 60.815,227.025 55.021,227.082C49.226,227.082 45.048,224.296 38.251,216.05C36.468,213.877 33.46,213.988 31.509,216.384C24.99,224.128 22.427,225.967 16.355,227.082C12.12,227.918 10.95,228.642 10.783,230.481C10.56,232.653 10.783,233.545 12.009,234.66C15.352,237.724 27.553,233.657 33.292,227.528L34.908,225.802L37.972,228.588C48.502,238.226 62.153,238.06 72.905,228.198L75.412,225.913L77.919,228.198C88.673,238.06 102.323,238.226 112.853,228.588L115.917,225.802L117.533,227.528C121.6,231.819 130.014,235.775 135.251,235.775C138.482,235.775 140.321,233.825 140.097,230.705C139.986,228.811 138.537,227.864 134.526,227.139C128.454,225.968 124.887,223.461 119.427,216.441C117.811,214.379 115.806,213.766 114.023,214.769Z" style="fill:#394d54;fill-rule:nonzero;"/>
        </g>
        <g id="docker">
            <path id="path14" d="M226.264,204.334L245.573,204.334L245.573,224.073L255.337,224.073C259.845,224.073 264.483,223.27 268.752,221.823C270.85,221.112 273.205,220.122 275.275,218.877C272.549,215.318 271.157,210.824 270.748,206.395C270.191,200.37 271.407,192.528 275.484,187.813L277.514,185.465L279.933,187.41C286.022,192.302 291.144,199.139 292.046,206.932C299.379,204.775 307.988,205.285 314.451,209.015L317.103,210.545L315.707,213.269C310.241,223.938 298.814,227.242 287.641,226.658C270.924,268.296 234.527,288.009 190.396,288.009C167.597,288.009 146.679,279.487 134.768,259.258C134.069,258.002 133.471,256.688 132.837,255.397C128.81,246.493 127.473,236.739 128.38,226.993L128.653,224.073L145.164,224.073L145.164,204.334L164.473,204.334L164.473,185.025L203.092,185.025L203.092,165.716L226.264,165.716L226.264,204.334" style="fill:#394d54;fill-rule:nonzero;"/>
            <g id="g16">
                <clipPath id="_clip1">
                    <path d="M165.896,167.404L165.896,206.249L147.318,206.249L147.318,225.672L131.764,225.672C131.698,226.234 131.644,226.797 131.59,227.361C130.618,237.942 132.465,247.701 136.709,256.046L138.134,258.605C138.989,260.14 139.985,261.58 141.037,262.986C142.088,264.39 142.461,265.167 143.122,266.1C154.344,278.713 171.072,284.784 190.385,284.784C233.155,284.784 269.454,265.836 285.518,223.27C296.915,224.44 307.848,221.517 312.831,211.791C304.894,207.211 294.693,208.679 288.817,211.633L304.386,167.404L243.586,206.249L224.163,206.249L224.163,167.404L165.896,167.404Z"/>
                </clipPath>
                <g clip-path="url(#_clip1)">
                    <g id="g18">
                        <g id="g20">
                            <rect id="path22" x="206.311" y="149.625" width="16.735" height="16.735" style="fill:#00acd3;fill-rule:nonzero;"/>
                            <rect id="path24" x="206.311" y="168.933" width="16.735" height="16.735" style="fill:#20c2ef;fill-rule:nonzero;"/>
                            <path id="path26" d="M208.365,164.965L208.365,151.018M210.875,164.965L210.875,151.018M213.41,164.965L213.41,151.018M215.946,164.965L215.946,151.018M218.482,164.965L218.482,151.018M220.991,164.965L220.991,151.018" style="fill-rule:nonzero;stroke:#394d54;stroke-width:1.32px;"/>
                            <path id="use28" d="M208.365,184.274L208.365,170.327M210.875,184.274L210.875,170.327M213.41,184.274L213.41,170.327M215.946,184.274L215.946,170.327M218.482,184.274L218.482,170.327M220.991,184.274L220.991,170.327" style="fill-rule:nonzero;stroke:#394d54;stroke-width:1.32px;"/>
                        </g>
                        <g id="use30">
                            <rect id="path221" serif:id="path22" x="225.62" y="168.933" width="16.735" height="16.735" style="fill:#00acd3;fill-rule:nonzero;"/>
                            <rect id="path241" serif:id="path24" x="225.62" y="149.624" width="16.735" height="16.735" style="fill:#20c2ef;fill-rule:nonzero;"/>
                            <path id="path261" serif:id="path26" d="M227.675,170.328L227.675,184.275M230.184,170.328L230.184,184.275M232.719,170.328L232.719,184.275M235.255,170.328L235.255,184.275M237.791,170.328L237.791,184.275M240.3,170.328L240.3,184.275" style="fill-rule:nonzero;stroke:#394d54;stroke-width:1.32px;"/>
                            <path id="use281" serif:id="use28" d="M227.675,151.018L227.675,164.965M230.184,151.018L230.184,164.965M232.719,151.018L232.719,164.965M235.255,151.018L235.255,164.965M237.791,151.018L237.791,164.965M240.3,151.018L240.3,164.965" style="fill-rule:nonzero;stroke:#394d54;stroke-width:1.32px;"/>
                        </g>
                    </g>
                    <g id="use32">
                        <g id="g201" serif:id="g20">
                            <rect id="path222" serif:id="path22" x="129.073" y="188.243" width="16.735" height="16.735" style="fill:#00acd3;fill-rule:nonzero;"/>
                            <rect id="path242" serif:id="path24" x="129.073" y="207.552" width="16.735" height="16.735" style="fill:#20c2ef;fill-rule:nonzero;"/>
                            <path id="path262" serif:id="path26" d="M131.128,203.583L131.128,189.637M133.638,203.583L133.638,189.637M136.173,203.583L136.173,189.637M138.709,203.583L138.709,189.637M141.245,203.583L141.245,189.637M143.754,203.583L143.754,189.637" style="fill-rule:nonzero;stroke:#394d54;stroke-width:1.32px;"/>
                            <path id="use282" serif:id="use28" d="M131.128,222.893L131.128,208.946M133.638,222.893L133.638,208.946M136.173,222.893L136.173,208.946M138.709,222.893L138.709,208.946M141.245,222.893L141.245,208.946M143.754,222.893L143.754,208.946" style="fill-rule:nonzero;stroke:#394d54;stroke-width:1.32px;"/>
                        </g>
                        <g id="use301" serif:id="use30">
                            <rect id="path223" serif:id="path22" x="148.383" y="207.552" width="16.735" height="16.735" style="fill:#00acd3;fill-rule:nonzero;"/>
                            <rect id="path243" serif:id="path24" x="148.383" y="188.242" width="16.735" height="16.735" style="fill:#20c2ef;fill-rule:nonzero;"/>
                            <path id="path263" serif:id="path26" d="M150.438,208.946L150.438,222.893M152.947,208.946L152.947,222.893M155.482,208.946L155.482,222.893M158.018,208.946L158.018,222.893M160.554,208.946L160.554,222.893M163.063,208.946L163.063,222.893" style="fill-rule:nonzero;stroke:#394d54;stroke-width:1.32px;"/>
                            <path id="use283" serif:id="use28" d="M150.438,189.637L150.438,203.584M152.947,189.637L152.947,203.584M155.482,189.637L155.482,203.584M158.018,189.637L158.018,203.584M160.554,189.637L160.554,203.584M163.063,189.637L163.063,203.584" style="fill-rule:nonzero;stroke:#394d54;stroke-width:1.32px;"/>
                        </g>
                    </g>
                    <g id="use34">
                        <g id="g202" serif:id="g20">
                            <rect id="path224" serif:id="path22" x="167.692" y="188.243" width="16.735" height="16.735" style="fill:#00acd3;fill-rule:nonzero;"/>
                            <rect id="path244" serif:id="path24" x="167.692" y="207.552" width="16.735" height="16.735" style="fill:#20c2ef;fill-rule:nonzero;"/>
                            <path id="path264" serif:id="path26" d="M169.747,203.583L169.747,189.637M172.256,203.583L172.256,189.637M174.791,203.583L174.791,189.637M177.328,203.583L177.328,189.637M179.863,203.583L179.863,189.637M182.373,203.583L182.373,189.637" style="fill-rule:nonzero;stroke:#394d54;stroke-width:1.32px;"/>
                            <path id="use284" serif:id="use28" d="M169.747,222.893L169.747,208.946M172.256,222.893L172.256,208.946M174.791,222.893L174.791,208.946M177.328,222.893L177.328,208.946M179.863,222.893L179.863,208.946M182.373,222.893L182.373,208.946" style="fill-rule:nonzero;stroke:#394d54;stroke-width:1.32px;"/>
                        </g>
                        <g id="use302" serif:id="use30">
                            <rect id="path225" serif:id="path22" x="187.001" y="207.552" width="16.735" height="16.735" style="fill:#00acd3;fill-rule:nonzero;"/>
                            <rect id="path245" serif:id="path24" x="187.001" y="188.242" width="16.735" height="16.735" style="fill:#20c2ef;fill-rule:nonzero;"/>
                            <path id="path265" serif:id="path26" d="M189.056,208.946L189.056,222.893M191.566,208.946L191.566,222.893M194.101,208.946L194.101,222.893M196.637,208.946L196.637,222.893M199.173,208.946L199.173,222.893M201.682,208.946L201.682,222.893" style="fill-rule:nonzero;stroke:#394d54;stroke-width:1.32px;"/>
                            <path id="use285" serif:id="use28" d="M189.056,189.637L189.056,203.584M191.566,189.637L191.566,203.584M194.101,189.637L194.101,203.584M196.637,189.637L196.637,203.584M199.173,189.637L199.173,203.584M201.682,189.637L201.682,203.584" style="fill-rule:nonzero;stroke:#394d54;stroke-width:1.32px;"/>
                        </g>
                    </g>
                    <g id="use36">
                        <g id="g203" serif:id="g20">
                            <rect id="path226" serif:id="path22" x="206.311" y="188.243" width="16.735" height="16.735" style="fill:#00acd3;fill-rule:nonzero;"/>
                            <rect id="path246" serif:id="path24" x="206.311" y="207.552" width="16.735" height="16.735" style="fill:#20c2ef;fill-rule:nonzero;"/>
                            <path id="path266" serif:id="path26" d="M208.365,203.583L208.365,189.637M210.875,203.583L210.875,189.637M213.41,203.583L213.41,189.637M215.946,203.583L215.946,189.637M218.482,203.583L218.482,189.637M220.991,203.583L220.991,189.637" style="fill-rule:nonzero;stroke:#394d54;stroke-width:1.32px;"/>
                            <path id="use286" serif:id="use28" d="M208.365,222.893L208.365,208.946M210.875,222.893L210.875,208.946M213.41,222.893L213.41,208.946M215.946,222.893L215.946,208.946M218.482,222.893L218.482,208.946M220.991,222.893L220.991,208.946" style="fill-rule:nonzero;stroke:#394d54;stroke-width:1.32px;"/>
                        </g>
                        <g id="use303" serif:id="use30">
                            <rect id="path227" serif:id="path22" x="225.62" y="207.552" width="16.735" height="16.735" style="fill:#00acd3;fill-rule:nonzero;"/>
                            <rect id="path247" serif:id="path24" x="225.62" y="188.242" width="16.735" height="16.735" style="fill:#20c2ef;fill-rule:nonzero;"/>
                            <path id="path267" serif:id="path26" d="M227.675,208.946L227.675,222.893M230.184,208.946L230.184,222.893M232.719,208.946L232.719,222.893M235.255,208.946L235.255,222.893M237.791,208.946L237.791,222.893M240.3,208.946L240.3,222.893" style="fill-rule:nonzero;stroke:#394d54;stroke-width:1.32px;"/>
                            <path id="use287" serif:id="use28" d="M227.675,189.637L227.675,203.584M230.184,189.637L230.184,203.584M232.719,189.637L232.719,203.584M235.255,189.637L235.255,203.584M237.791,189.637L237.791,203.584M240.3,189.637L240.3,203.584" style="fill-rule:nonzero;stroke:#394d54;stroke-width:1.32px;"/>
                        </g>
                    </g>
                </g>
            </g>
            <clipPath id="_clip2">
                <path id="path38" d="M165.896,167.404L165.896,206.249L147.318,206.249L147.318,225.672L131.764,225.672C131.698,226.234 131.644,226.797 131.59,227.361C130.618,237.942 132.465,247.701 136.709,256.046L138.134,258.605C138.989,260.14 139.985,261.58 141.037,262.986C142.088,264.39 142.461,265.167 143.122,266.1C154.344,278.713 171.072,284.784 190.385,284.784C233.155,284.784 269.454,265.836 285.518,223.27C296.915,224.44 307.848,221.517 312.831,211.791C304.894,207.211 294.693,208.679 288.817,211.633L304.386,167.404L243.586,206.249L224.163,206.249L224.163,167.404L165.896,167.404Z"/>
            </clipPath>
            <g clip-path="url(#_clip2)">
                <path d="M288.823,211.637C290.118,201.575 282.588,193.671 277.918,189.919C272.536,196.14 271.7,212.447 280.143,219.312C275.431,223.497 265.502,227.291 255.336,227.291L130.429,227.291C129.44,237.903 130.429,289.006 130.429,289.006L313.675,289.006L312.842,211.802C304.905,207.222 294.7,208.683 288.823,211.636" style="fill:#17b5eb;fill-rule:nonzero;"/>
            </g>
            <clipPath id="_clip3">
                <path id="path40" d="M165.896,167.404L165.896,206.249L147.318,206.249L147.318,225.672L131.764,225.672C131.698,226.234 131.644,226.797 131.59,227.361C130.618,237.942 132.465,247.701 136.709,256.046L138.134,258.605C138.989,260.14 139.985,261.58 141.037,262.986C142.088,264.39 142.461,265.167 143.122,266.1C154.344,278.713 171.072,284.784 190.385,284.784C233.155,284.784 269.454,265.836 285.518,223.27C296.915,224.44 307.848,221.517 312.831,211.791C304.894,207.211 294.693,208.679 288.817,211.633L304.386,167.404L243.586,206.249L224.163,206.249L224.163,167.404L165.896,167.404Z"/>
            </clipPath>
            <g clip-path="url(#_clip3)">
                <path d="M130.429,240.872L130.429,289.006L313.675,289.006L313.675,240.872" style="fill-opacity:0.17;fill-rule:nonzero;"/>
            </g>
            <clipPath id="_clip4">
                <path id="path42" d="M165.896,167.404L165.896,206.249L147.318,206.249L147.318,225.672L131.764,225.672C131.698,226.234 131.644,226.797 131.59,227.361C130.618,237.942 132.465,247.701 136.709,256.046L138.134,258.605C138.989,260.14 139.985,261.58 141.037,262.986C142.088,264.39 142.461,265.167 143.122,266.1C154.344,278.713 171.072,284.784 190.385,284.784C233.155,284.784 269.454,265.836 285.518,223.27C296.915,224.44 307.848,221.517 312.831,211.791C304.894,207.211 294.693,208.679 288.817,211.633L304.386,167.404L243.586,206.249L224.163,206.249L224.163,167.404L165.896,167.404Z"/>
            </clipPath>
            <g clip-path="url(#_clip4)">
                <path d="M195.652,284.691C184.219,279.265 177.943,271.889 174.451,263.837L139.718,265.361L157.451,289.006L195.652,284.691" style="fill:#d4edf1;fill-rule:nonzero;"/>
            </g>
            <clipPath id="_clip5">
                <path id="path44" d="M165.896,167.404L165.896,206.249L147.318,206.249L147.318,225.672L131.764,225.672C131.698,226.234 131.644,226.797 131.59,227.361C130.618,237.942 132.465,247.701 136.709,256.046L138.134,258.605C138.989,260.14 139.985,261.58 141.037,262.986C142.088,264.39 142.461,265.167 143.122,266.1C154.344,278.713 171.072,284.784 190.385,284.784C233.155,284.784 269.454,265.836 285.518,223.27C296.915,224.44 307.848,221.517 312.831,211.791C304.894,207.211 294.693,208.679 288.817,211.633L304.386,167.404L243.586,206.249L224.163,206.249L224.163,167.404L165.896,167.404Z"/>
            </clipPath>
            <g clip-path="url(#_clip5)">
                <path d="M289.608,211.263L289.608,211.29C271.992,233.996 246.724,253.832 219.598,264.253C195.4,273.548 174.303,273.593 159.747,266.126C158.18,265.241 156.643,264.259 155.103,263.329C144.432,255.871 138.421,243.534 138.926,227.281L130.429,227.281L130.429,289.006L313.675,289.006L313.675,207.938L292.564,207.938L289.608,211.263Z" style="fill-opacity:0.08;fill-rule:nonzero;"/>
            </g>
            <path id="path46" d="M140.246,264.543C152.207,265.198 164.973,265.315 176.108,261.825" style="fill:none;fill-rule:nonzero;stroke:#394d54;stroke-width:2.87px;stroke-linecap:round;"/>
            <path id="path48" d="M187.995,256.038C187.995,258.587 185.929,260.654 183.379,260.654C180.829,260.654 178.762,258.587 178.762,256.038C178.762,253.488 180.829,251.421 183.379,251.421C185.929,251.421 187.995,253.488 187.995,256.038Z" style="fill:#d4edf1;fill-rule:nonzero;"/>
            <path id="path50" d="M184.576,252.954C184.173,253.187 183.901,253.624 183.901,254.123C183.901,254.868 184.505,255.471 185.25,255.471C185.761,255.471 186.204,255.188 186.434,254.769C186.596,255.159 186.686,255.588 186.686,256.038C186.686,257.863 185.205,259.344 183.379,259.344C181.553,259.344 180.072,257.863 180.072,256.038C180.072,254.211 181.553,252.73 183.379,252.73C183.802,252.73 184.205,252.81 184.576,252.954Z" style="fill:#394d54;fill-rule:nonzero;"/>
        </g>
    </g>
</svg>
