<?xml version="1.0" encoding="UTF-8" standalone="no"?>
<svg width="100%" height="100%" viewBox="0 0 840 635" version="1.1" xmlns="http://www.w3.org/2000/svg" xmlns:xlink="http://www.w3.org/1999/xlink" xml:space="preserve">
    <style>
        text {
            font-family: 'system-ui', 'ArialMT', 'Arial', sans-serif;
            font-size: 27px;
            fill: black;
        }

        #info text {
            font-style: italic;
            fill:#666;
        }

        .folder {
            fill: #616161;
        }

        @media (prefers-color-scheme: dark) {
            text {
                fill: white;
            }

            .folder {
                fill: #90A4AE;
            }
        }
    </style>
    <g id="element-15">
        <g transform="matrix(1,0,0,1,105.22,609.657)">
            <text x="0px" y="0px">main.yml</text>
        </g>
        <g transform="matrix(1,0,0,1,0,80)">
            <path d="M76,518L81.5,518L76,512.5L76,518M69,511L77,511L83,517L83,529C83,530.1 82.1,531 81,531L69,531C67.9,531 67,530.1 67,529L67,513C67,511.9 67.9,511 69,511M81,527L81,525L72,525L72,527L81,527M77,523L77,521L69,521L69,523L77,523Z" style="fill:#ff5252;fill-rule:nonzero;"/>
        </g>
    </g>
    <g id="element-14">
        <g transform="matrix(1,0,0,1,145.22,569.657)">
            <text x="0px" y="0px">docker-compose.yml.j2</text>
        </g>
        <g transform="matrix(1,0,0,1,0,80)">
            <path d="M105.142,472.084C109.764,472.654 113.726,472.937 117.028,472.933C120.278,472.93 124.165,472.647 128.69,472.084L128.69,475.198C124.165,475.76 120.278,476.043 117.028,476.046C113.726,476.05 109.764,475.767 105.142,475.198L105.142,472.084Z" style="fill:#616161;fill-rule:nonzero;"/>
            <path d="M110.519,474.59L108.935,490L112.387,489.986L112.897,475.495L110.519,474.59ZM122.916,474.575L124.458,489.971L121.048,489.971L120.538,475.48L122.916,474.575Z" style="fill:#616161;fill-rule:nonzero;"/>
            <rect x="105" y="478.509" width="23.548" height="1.811" style="fill:#616161;"/>
            <rect x="115.868" y="474.575" width="1.811" height="4.303" style="fill:#616161;"/>
        </g>
    </g>
    <g id="element-13">
        <g transform="matrix(1,0,0,1,125.22,529.657)">
            <text x="0px" y="0px">shared</text>
        </g>
        <g class="folder" transform="matrix(1,0,0,1,0,80)">
            <path d="M104.849,451.835L84.688,451.835C83.213,451.835 82,450.621 82,449.146L82,433.018C82,431.526 83.196,430.33 84.688,430.33L92.752,430.33L95.441,433.018L104.849,433.018C106.323,433.018 107.537,434.231 107.537,435.706L84.688,435.706L84.688,449.146L87.564,438.394L110.508,438.394L107.443,449.818C107.134,450.988 106.086,451.835 104.849,451.835Z"/>
            <path d="M67,438.33L66,437.33L58,445.33L50,437.33L49,438.33L58,447.33L67,438.33Z"/>
        </g>
    </g>
    <g id="element-12">
        <g transform="matrix(1,0,0,1,105.22,489.657)">
            <text x="0px" y="0px">templates</text>
        </g>
        <g transform="matrix(1,0,0,1,0,80)">
            <g>
                <path d="M84.849,411.835L64.688,411.835C63.213,411.835 62,410.621 62,409.146L62,393.018C62,391.526 63.196,390.33 64.688,390.33L72.752,390.33L75.441,393.018L84.849,393.018C86.323,393.018 87.537,394.231 87.537,395.706L64.688,395.706L64.688,409.146L67.564,398.394L90.508,398.394L87.443,409.818C87.134,410.988 86.086,411.835 84.849,411.835Z" style="fill:#a1887f;fill-rule:nonzero;"/>
                <path d="M73.559,408.917L80.727,408.917L80.727,407.188L73.559,407.188L73.559,408.917ZM73.559,412.372L80.727,412.372L80.727,410.644L73.559,410.644L73.559,412.372ZM73.559,405.46L80.727,405.46L80.727,403.731L73.559,403.731L73.559,405.46ZM73.559,400.276L73.559,402.004L80.727,402.004L80.727,400.276L73.559,400.276ZM82.52,400.276L89.688,400.276L89.688,412.372L82.52,412.372L82.52,400.276Z" style="fill:#d7ccc8;fill-rule:nonzero;"/>
            </g>
            <path d="M47,398.33L46,397.33L38,405.33L30,397.33L29,398.33L38,407.33L47,398.33Z" style="fill:#616161;"/>
        </g>
    </g>
    <g id="element-11">
        <g transform="matrix(1,0,0,1,165.22,449.657)">
            <text x="0px" y="0px">.env</text>
        </g>
        <g transform="matrix(1,0,0,1,0,80)">
            <path d="M128.778,350.33L126.389,350.33L126.389,357.497L128.778,357.497L128.778,350.33M143.111,350.33L140.722,350.33L140.722,362.274L143.111,362.274L143.111,350.33M124,362.274L126.389,362.274L126.389,371.83L128.778,371.83L128.778,362.274L131.167,362.274L131.167,359.886L124,359.886L124,362.274M138.333,355.108L135.944,355.108L135.944,350.33L133.556,350.33L133.556,355.108L131.167,355.108L131.167,357.497L138.333,357.497L138.333,355.108M133.556,371.83L135.944,371.83L135.944,359.886L133.556,359.886L133.556,371.83M138.333,364.663L138.333,367.052L140.722,367.052L140.722,371.83L143.111,371.83L143.111,367.052L145.5,367.052L145.5,364.663L138.333,364.663Z" style="fill:#fbc02d;fill-rule:nonzero;"/>
        </g>
    </g>
    <g id="element-10">
        <g transform="matrix(1,0,0,1,165.22,369.657)">
            <text x="0px" y="0px">data</text>
        </g>
        <g class="folder" transform="matrix(1,0,0,1,20,200)">
            <path d="M124.849,171.835L104.688,171.835C103.213,171.835 102,170.621 102,169.146L102,153.018C102,151.526 103.196,150.33 104.688,150.33L112.752,150.33L115.441,153.018L124.849,153.018C126.323,153.018 127.537,154.231 127.537,155.706L104.688,155.706L104.688,169.146L107.564,158.394L130.508,158.394L127.443,169.818C127.134,170.988 126.086,171.835 124.849,171.835Z"/>
            <path d="M87,158.33L86,157.33L78,165.33L70,157.33L69,158.33L78,167.33L87,158.33Z"/>
        </g>
    </g>
    <g id="element-9">
        <g transform="matrix(1,0,0,1,145.22,329.657)">
            <text x="0px" y="0px">host_02</text>
        </g>
        <g class="folder" transform="matrix(1,0,0,1,0,40)">
            <path d="M124.849,291.835L104.688,291.835C103.213,291.835 102,290.621 102,289.146L102,273.018C102,271.526 103.196,270.33 104.688,270.33L112.752,270.33L115.441,273.018L124.849,273.018C126.323,273.018 127.537,274.231 127.537,275.706L104.688,275.706L104.688,289.146L107.564,278.394L130.508,278.394L127.443,289.818C127.134,290.988 126.086,291.835 124.849,291.835Z"/>
            <path d="M87,278.33L86,277.33L78,285.33L70,277.33L69,278.33L78,287.33L87,278.33Z"/>
        </g>
    </g>
    <g id="element-8">
        <g transform="matrix(1,0,0,1,165.22,289.657)">
            <text x="0px" y="0px">.env</text>
        </g>
        <g transform="matrix(1,0,0,1,0,40)">
            <path d="M128.778,230.33L126.389,230.33L126.389,237.496L128.778,237.496L128.778,230.33M143.111,230.33L140.722,230.33L140.722,242.274L143.111,242.274L143.111,230.33M124,242.274L126.389,242.274L126.389,251.83L128.778,251.83L128.778,242.274L131.167,242.274L131.167,239.885L124,239.885L124,242.274M138.333,235.107L135.944,235.107L135.944,230.33L133.556,230.33L133.556,235.107L131.167,235.107L131.167,237.496L138.333,237.496L138.333,235.107M133.556,251.83L135.944,251.83L135.944,239.885L133.556,239.885L133.556,251.83M138.333,244.663L138.333,247.052L140.722,247.052L140.722,251.83L143.111,251.83L143.111,247.052L145.5,247.052L145.5,244.663L138.333,244.663Z" style="fill:#fbc02d;fill-rule:nonzero;"/>
        </g>
    </g>
    <g id="element-7" transform="matrix(1,0,0,1,40,-320)">
        <g transform="matrix(1,0,0,1,145.22,569.657)">
            <text x="0px" y="0px">index.html</text>
        </g>
        <g transform="matrix(1,0,0,1,108.916,549.042)">
            <path d="M12,17.56L16.07,16.43L16.62,10.33L9.38,10.33L9.2,8.3L16.8,8.3L17,6.31L7,6.31L7.56,12.32L14.45,12.32L14.22,14.9L12,15.5L9.78,14.9L9.64,13.24L7.64,13.24L7.93,16.43L12,17.56M4.07,3L19.93,3L18.5,19.2L12,21L5.5,19.2L4.07,3Z" style="fill:#e44d26;fill-rule:nonzero;"/>
        </g>
    </g>
    <g id="element-6" transform="matrix(1,0,0,1,40,-160)">
        <g transform="matrix(1,0,0,1,145.22,569.657)">
            <text x="0px" y="0px">index.html</text>
        </g>
        <g transform="matrix(1,0,0,1,108.916,549.042)">
            <path d="M12,17.56L16.07,16.43L16.62,10.33L9.38,10.33L9.2,8.3L16.8,8.3L17,6.31L7,6.31L7.56,12.32L14.45,12.32L14.22,14.9L12,15.5L9.78,14.9L9.64,13.24L7.64,13.24L7.93,16.43L12,17.56M4.07,3L19.93,3L18.5,19.2L12,21L5.5,19.2L4.07,3Z" style="fill:#e44d26;fill-rule:nonzero;"/>
        </g>
    </g>
    <g id="element-5">
        <g transform="matrix(1,0,0,1,165.22,209.657)">
            <text x="0px" y="0px">data</text>
        </g>
        <g class="folder" transform="matrix(1,0,0,1,20,40)">
            <path d="M124.849,171.835L104.688,171.835C103.213,171.835 102,170.621 102,169.146L102,153.018C102,151.526 103.196,150.33 104.688,150.33L112.752,150.33L115.441,153.018L124.849,153.018C126.323,153.018 127.537,154.231 127.537,155.706L104.688,155.706L104.688,169.146L107.564,158.394L130.508,158.394L127.443,169.818C127.134,170.988 126.086,171.835 124.849,171.835Z"/>
            <path d="M87,158.33L86,157.33L78,165.33L70,157.33L69,158.33L78,167.33L87,158.33Z"/>
        </g>
    </g>
    <g id="element-4">
        <g transform="matrix(1,0,0,1,145.22,169.657)">
            <text x="0px" y="0px">host_01</text>
        </g>
        <g class="folder">
            <path d="M124.849,171.835L104.688,171.835C103.213,171.835 102,170.621 102,169.146L102,153.018C102,151.526 103.196,150.33 104.688,150.33L112.752,150.33L115.441,153.018L124.849,153.018C126.323,153.018 127.537,154.231 127.537,155.706L104.688,155.706L104.688,169.146L107.564,158.394L130.508,158.394L127.443,169.818C127.134,170.988 126.086,171.835 124.849,171.835Z"/>
            <path d="M87,158.33L86,157.33L78,165.33L70,157.33L69,158.33L78,167.33L87,158.33Z"/>
        </g>
    </g>
    <g id="element-3">
        <g transform="matrix(1,0,0,1,125.22,129.657)">
            <text x="0px" y="0px">docker</text>
        </g>
        <g class="folder">
            <path d="M104.849,131.835L84.688,131.835C83.213,131.835 82,130.621 82,129.146L82,113.018C82,111.526 83.196,110.33 84.688,110.33L92.752,110.33L95.441,113.018L104.849,113.018C106.323,113.018 107.537,114.231 107.537,115.706L84.688,115.706L84.688,129.146L87.564,118.394L110.508,118.394L107.443,129.818C107.134,130.988 106.086,131.835 104.849,131.835Z"/>
            <path d="M67,118.33L66,117.33L58,125.33L50,117.33L49,118.33L58,127.33L67,118.33Z"/>
        </g>
    </g>
    <g id="element-2">
        <g transform="matrix(1,0,0,1,105.22,89.657)">
            <text x="0px" y="0px">ﬁles</text>
        </g>
        <g class="folder">
            <path d="M84.849,91.835L64.688,91.835C63.213,91.835 62,90.621 62,89.146L62,73.018C62,71.526 63.196,70.33 64.688,70.33L72.752,70.33L75.441,73.018L84.849,73.018C86.323,73.018 87.537,74.231 87.537,75.706L64.688,75.706L64.688,89.146L67.564,78.394L90.508,78.394L87.443,89.818C87.134,90.988 86.086,91.835 84.849,91.835Z"/>
            <path d="M47,78.33L46,77.33L38,85.33L30,77.33L29,78.33L38,87.33L47,78.33Z"/>
        </g>
    </g>
    <g id="element-1">
        <g transform="matrix(1,0,0,1,85.22,49.657)">
            <text x="0px" y="0px">playbook</text>
        </g>
        <g class="folder">
            <path d="M64.849,51.835L44.688,51.835C43.213,51.835 42,50.621 42,49.146L42,33.018C42,31.526 43.196,30.33 44.688,30.33L52.752,30.33L55.441,33.018L64.849,33.018C66.323,33.018 67.537,34.231 67.537,35.706L44.688,35.706L44.688,49.146L47.564,38.394L70.508,38.394L67.443,49.818C67.134,50.988 66.086,51.835 64.849,51.835Z"/>
            <path d="M27,38.33L26,37.33L18,45.33L10,37.33L9,38.33L18,47.33L27,38.33Z"/>
        </g>
    </g>
    <g id="info">
        <g transform="matrix(1,0,0,1,468569.657)">
            <text x="0px" y="0px"># Shared compose ﬁle</text>
        </g>
        <g transform="matrix(1,0,0,1,468.748,489.657)">
            <text x="0px" y="0px"># Local templates folder</text>
        </g>
        <g transform="matrix(1,0,0,1,468.748,32.748,9.657)">
            <text x="0px" y="0px"># ...</text>
        </g>
        <g transform="matrix(1,0,0,1,468.748,289.657)">
            <text x="0px" y="0px"># Encrypted secrets</text>
        </g>
        <g transform="matrix(1,0,0,1,468.748,209.657)">
            <text x="0px" y="0px"># Optional data folder</text>
        </g>
        <g transform="matrix(1,0,0,1,468.748,249.657)">
            <text x="0px" y="0px"># Sample Website</text>
        </g>
        <g transform="matrix(1,0,0,1,468.748,169.657)">
            <text x="0px" y="0px"># Inventory Host 01</text>
        </g>
        <g transform="matrix(1,0,0,1,468.748,89.657)">
            <text x="0px" y="0px"># Local ﬁles folder</text>
        </g>
        <g transform="matrix(1,0,0,1,468.748,50.657)">
            <text x="0px" y="0px"># Your Playbook</text>
        </g>
    </g>
</svg>